<svg width="223" height="224" viewBox="0 0 223 224" fill="none" xmlns="http://www.w3.org/2000/svg">
<g clip-path="url(#clip0_43_1020)">
<path d="M8.92 72.0031H0V80.9231H8.92V72.0031Z" fill="#F7D6BE"/>
<path d="M17.84 63.0831H62.44V54.1631V0.643066H0V54.1631V63.0831H17.84ZM8.92 9.56307H53.52V54.1631H8.92V9.56307Z" fill="#F7D6BE"/>
<path d="M8.92 98.763V89.843H0V98.763V116.603H8.92H17.84V98.763H8.92Z" fill="#F7D6BE"/>
<path d="M8.92 125.523H0V134.443H8.92H17.84V125.523H8.92Z" fill="#F7D6BE"/>
<path d="M17.84 152.283V143.363H8.92H0V152.283H8.92H17.84Z" fill="#F7D6BE"/>
<path d="M26.7598 72.0031H17.8398V80.9231H26.7598V72.0031Z" fill="#F7D6BE"/>
<path d="M26.7598 89.843H17.8398V98.763H26.7598V89.843Z" fill="#F7D6BE"/>
<path d="M35.6798 45.243H44.5998V18.483H35.6798H26.7598H17.8398V45.243H26.7598H35.6798Z" fill="#F7D6BE"/>
<path d="M35.6798 143.363H44.5998V134.443H53.5198H62.4398H71.3598H80.2798V125.523H71.3598H62.4398H53.5198V116.603H44.5998V107.683H35.6798V116.603H26.7598H17.8398V125.523H26.7598H35.6798V134.443H26.7598H17.8398V143.363H26.7598H35.6798Z" fill="#F7D6BE"/>
<path d="M26.7598 179.043H17.8398V205.803H26.7598H35.6798H44.5998V179.043H35.6798H26.7598Z" fill="#F7D6BE"/>
<path d="M44.6 161.203H0V205.803V223.643H62.44V205.803V161.203H44.6V161.203ZM53.52 205.803V214.723H8.92V205.803V170.123H53.52V205.803V205.803Z" fill="#F7D6BE"/>
<path d="M53.5195 72.0031V80.9231H62.4395H71.3595V72.0031H62.4395H53.5195Z" fill="#F7D6BE"/>
<path d="M53.5196 89.843H44.5996V98.763H53.5196H62.4396V89.843H53.5196Z" fill="#F7D6BE"/>
<path d="M71.3595 116.603V107.683H80.2795V98.763V89.843H71.3595V98.763H62.4395V107.683H53.5195V116.603H62.4395H71.3595Z" fill="#F7D6BE"/>
<path d="M62.4395 143.363H53.5195V152.283H62.4395H71.3595V143.363H62.4395Z" fill="#F7D6BE"/>
<path d="M80.2804 18.483H71.3604V27.403H80.2804V18.483Z" fill="#F7D6BE"/>
<path d="M80.2804 214.723H71.3604V223.643H80.2804V214.723Z" fill="#F7D6BE"/>
<path d="M89.2003 9.56307H98.1204V27.4031H107.04V18.4831H115.96V9.56307H107.04V0.643066H98.1204H89.2003H80.2804H71.3604V9.56307H80.2804V18.4831H89.2003V9.56307Z" fill="#F7D6BE"/>
<path d="M89.2003 63.083H80.2803V72.003H89.2003V63.083Z" fill="#F7D6BE"/>
<path d="M89.2003 170.123H80.2803V179.043V187.963H89.2003H98.1203V179.043H89.2003V170.123Z" fill="#F7D6BE"/>
<path d="M89.2003 196.883H80.2804H71.3604V205.803H80.2804H89.2003V196.883Z" fill="#F7D6BE"/>
<path d="M98.1204 89.8431V98.7631H107.04V72.0031H115.96V54.1631V45.2431H107.04H98.1204V27.4031H89.2003H80.2804V45.2431H71.3604V54.1631V63.0831H80.2804V54.1631H89.2003V63.0831H98.1204V54.1631H107.04V63.0831H98.1204V80.9231H89.2003H80.2804V89.8431H89.2003H98.1204Z" fill="#F7D6BE"/>
<path d="M89.2003 107.683H80.2803V125.523H89.2003V134.443H98.1203H107.04V125.523H98.1203V116.603H107.04V107.683H98.1203H89.2003Z" fill="#F7D6BE"/>
<path d="M98.1202 214.723H89.2002V223.643H98.1202V214.723Z" fill="#F7D6BE"/>
<path d="M107.04 196.883H98.1201V205.803V214.723H107.04V223.643H115.96V205.803H107.04V196.883Z" fill="#F7D6BE"/>
<path d="M107.04 27.403V36.323H115.96H124.88V54.163V63.083H133.8V54.163V27.403H124.88V18.483H115.96V27.403H107.04Z" fill="#F7D6BE"/>
<path d="M115.96 98.7631H107.04V107.683H115.96V98.7631Z" fill="#F7D6BE"/>
<path d="M124.88 80.9231H115.96V89.8431H124.88V80.9231Z" fill="#F7D6BE"/>
<path d="M124.88 116.603H115.96V134.443H124.88V116.603Z" fill="#F7D6BE"/>
<path d="M124.88 187.963H115.96V179.043V161.203H124.88V152.283H115.96V143.363H107.04H98.1204H89.2003V152.283H80.2804H71.3604V170.123H80.2804V161.203H89.2003H98.1204V152.283H107.04V170.123H98.1204V179.043H107.04V187.963H115.96V205.803H124.88V187.963Z" fill="#F7D6BE"/>
<path d="M133.8 9.56307V0.643066H124.88H115.96V9.56307H124.88H133.8Z" fill="#F7D6BE"/>
<path d="M133.8 72.0031H124.88V80.9231H133.8V72.0031Z" fill="#F7D6BE"/>
<path d="M133.8 214.723H124.88V223.643H133.8V214.723Z" fill="#F7D6BE"/>
<path d="M142.72 18.483H133.8V27.403H142.72V18.483Z" fill="#F7D6BE"/>
<path d="M151.64 9.56311H142.72V18.4831H151.64V9.56311Z" fill="#F7D6BE"/>
<path d="M169.48 161.203H160.56V170.123H169.48V161.203Z" fill="#F7D6BE"/>
<path d="M178.4 89.843V72.003H169.48V80.923H160.56H151.64V54.163V45.243H142.72V54.163V80.923H133.8V98.763H142.72V89.843H151.64H160.56V98.763H151.64V107.683H142.72V116.603H133.8V134.443H142.72H151.64V116.603H160.56V125.523H169.48H178.4V116.603H169.48V107.683H178.4V98.763H169.48V89.843H178.4Z" fill="#F7D6BE"/>
<path d="M187.32 152.283V143.363H178.4V134.443H160.56V143.363H133.8V161.203H142.72V170.123H124.88V179.043H133.8V205.803H142.72V223.643H169.48V214.723H187.32V223.643H196.24V214.723H187.32V205.803V196.883H196.24H205.16V205.803H214.08H223V196.883H214.08V179.043H205.16V187.963H196.24V179.043H187.32V170.123H196.24V161.203H187.32V152.283V152.283ZM160.56 152.283H178.4V179.043H151.64V152.283H160.56V152.283ZM142.72 196.883V187.963H151.64V196.883H142.72ZM160.56 214.723H151.64V205.803H160.56V214.723ZM169.48 205.803H160.56V187.963H169.48V196.883H178.4V205.803H169.48V205.803Z" fill="#F7D6BE"/>
<path d="M187.32 18.483H178.4V45.243H187.32H196.24H205.16V18.483H196.24H187.32Z" fill="#F7D6BE"/>
<path d="M196.24 80.9231H187.32V98.7631V107.683H196.24V98.7631H205.16V89.8431H196.24V80.9231Z" fill="#F7D6BE"/>
<path d="M187.32 125.523V134.443H196.24H205.16V125.523H196.24H187.32Z" fill="#F7D6BE"/>
<path d="M205.16 72.0031H196.24V80.9231H205.16V72.0031Z" fill="#F7D6BE"/>
<path d="M205.16 152.283H196.24V161.203H205.16V152.283Z" fill="#F7D6BE"/>
<path d="M214.08 143.363H205.16V152.283H214.08V143.363Z" fill="#F7D6BE"/>
<path d="M214.08 0.643066H160.56V54.1631V63.0831H223V54.1631V0.643066H214.08ZM205.16 54.1631H169.48V9.56307H214.08V54.1631H205.16Z" fill="#F7D6BE"/>
<path d="M214.08 80.9231H205.16V89.843H214.08V98.7631H223V72.0031H214.08V80.9231Z" fill="#F7D6BE"/>
<path d="M214.08 116.603H205.16V125.523H214.08V134.443H223V107.683H214.08V116.603Z" fill="#F7D6BE"/>
<path d="M223 152.283H214.08V170.123H223V152.283Z" fill="#F7D6BE"/>
<path d="M223 214.723H214.08V223.643H223V214.723Z" fill="#F7D6BE"/>
</g>
<defs>
<clipPath id="clip0_43_1020">
<rect width="223" height="223" fill="white" transform="translate(0 0.643066)"/>
</clipPath>
</defs>
</svg>
